<?xml version="1.0" encoding="UTF-8"?>
<svg id="Layer_1" xmlns="http://www.w3.org/2000/svg" version="1.1" viewBox="0 0 320.1 99.9">
  <!-- Generator: Adobe Illustrator 29.1.0, SVG Export Plug-In . SVG Version: 2.1.0 Build 142)  -->
  <defs>
    <style>
      .st0 {
        fill: #b5b5b5;
      }
    </style>
  </defs>
  <path class="st0" d="M168.7,25.1c0,3.6-2.9,6.5-6.5,6.5s-6.5-2.9-6.5-6.5,2.8-6.5,6.5-6.5c3.7.1,6.5,3,6.5,6.5ZM141.9,38.2v1.6s-3.1-4-9.7-4c-10.9,0-19.4,8.3-19.4,19.8s8.4,19.8,19.4,19.8,9.7-4.1,9.7-4.1v1.7c0,.8.6,1.4,1.4,1.4h8.1v-37.6h-8.1c-.8,0-1.4.7-1.4,1.4ZM141.9,62.3c-1.5,2.2-4.5,4.1-8.1,4.1-6.4,0-11.3-4-11.3-10.8s4.9-10.8,11.3-10.8,6.7,2,8.1,4.1v13.4ZM157.4,36.8h9.6v37.6h-9.6v-37.6ZM300.8,35.8c-6.6,0-9.7,4-9.7,4v-21.1h-9.6v55.7h8.1c.8,0,1.4-.7,1.4-1.4v-1.7h0s3.1,4.1,9.7,4.1c10.9,0,19.4-8.4,19.4-19.8,0-11.4-8.5-19.8-19.3-19.8ZM299.2,66.3c-3.7,0-6.6-1.9-8.1-4.1v-13.4c1.5-2,4.7-4.1,8.1-4.1,6.4,0,11.3,4,11.3,10.8s-4.9,10.8-11.3,10.8ZM276.5,52.1v22.4h-9.6v-21.3c0-6.2-2-8.7-7.4-8.7s-5.9,1.5-7.8,3.7v26.2h-9.6v-37.6h7.6c.8,0,1.4.7,1.4,1.4v1.6c2.8-2.9,6.5-4,10.2-4s7.7,1.2,10.5,3.6c3.4,2.8,4.7,6.4,4.7,12.7ZM218.8,35.8c-6.6,0-9.7,4-9.7,4v-21.1h-9.6v55.7h8.1c.8,0,1.4-.7,1.4-1.4v-1.7h0s3.1,4.1,9.7,4.1c10.9,0,19.4-8.4,19.4-19.8.1-11.4-8.4-19.8-19.3-19.8ZM217.2,66.3c-3.7,0-6.6-1.9-8.1-4.1v-13.4c1.5-2,4.7-4.1,8.1-4.1,6.4,0,11.3,4,11.3,10.8s-4.9,10.8-11.3,10.8ZM191.2,35.8c2.9,0,4.4.5,4.4.5v8.9s-8-2.7-13,3v26.3h-9.6v-37.7h8.1c.8,0,1.4.7,1.4,1.4v1.6c1.8-2.1,5.7-4,8.7-4ZM91.5,71c-.5-1.2-1-2.5-1.5-3.6-.8-1.8-1.6-3.5-2.3-5.1h0c-6.9-15.1-14.3-30.3-22.1-45.3l-.3-.6c-.8-1.5-1.6-3.1-2.4-4.7-1-1.8-2-3.7-3.6-5.5-3.2-4-7.8-6.2-12.7-6.2s-9.5,2.2-12.8,6c-1.5,1.8-2.6,3.7-3.6,5.5-.8,1.6-1.6,3.2-2.4,4.7l-.3.6c-7.7,15-15.2,30.2-22.1,45.2v.2c-.8,1.6-1.6,3.3-2.4,5.1-.5,1.1-1,2.3-1.5,3.6-1.3,3.7-1.7,7.2-1.2,10.8,1.1,7.5,6.1,13.8,13,16.6,2.6,1.1,5.3,1.6,8.1,1.6s1.8,0,2.6-.2c3.3-.4,6.7-1.5,10-3.4,4.1-2.3,8-5.6,12.4-10.4,4.4,4.8,8.4,8.1,12.4,10.4,3.3,1.9,6.7,3,10,3.4.8,0,1.8.2,2.6.2,2.8,0,5.6-.5,8.1-1.6,7-2.8,11.9-9.2,13-16.6.8-3.5.4-7-.9-10.7ZM46.4,76.2c-5.4-6.8-8.9-13.2-10.1-18.6-.5-2.3-.6-4.3-.3-6.1.2-1.6.8-3,1.6-4.2,1.9-2.7,5.1-4.4,8.8-4.4s7,1.6,8.8,4.4c.8,1.2,1.4,2.6,1.6,4.2.3,1.8.2,3.9-.3,6.1-1.2,5.3-4.7,11.7-10.1,18.6ZM86.3,80.9c-.7,5.2-4.2,9.7-9.1,11.7-2.4,1-5,1.3-7.6,1-2.5-.3-5-1.1-7.6-2.6-3.6-2-7.2-5.1-11.4-9.7,6.6-8.1,10.6-15.5,12.1-22.1.7-3.1.8-5.9.5-8.5-.4-2.5-1.3-4.8-2.7-6.8-3.1-4.5-8.3-7.1-14.1-7.1s-11,2.7-14.1,7.1c-1.4,2-2.3,4.3-2.7,6.8-.4,2.6-.3,5.5.5,8.5,1.5,6.6,5.6,14.1,12.1,22.2-4.1,4.6-7.8,7.7-11.4,9.7-2.6,1.5-5.1,2.3-7.6,2.6-2.7.3-5.3,0-7.6-1-4.9-2-8.4-6.5-9.1-11.7-.3-2.5,0-5,.9-7.8.3-1,.8-2,1.3-3.2.7-1.6,1.5-3.3,2.3-5v-.2c7-14.9,14.4-30.1,22.1-44.9l.3-.6c.8-1.5,1.6-3.1,2.4-4.6.8-1.6,1.7-3.1,2.8-4.4,2.1-2.4,4.9-3.7,8-3.7s5.9,1.3,8,3.7c1.1,1.3,2,2.8,2.8,4.4.8,1.5,1.6,3.1,2.4,4.6l.3.6c7.6,14.9,15,30.1,21.9,45h0c.8,1.7,1.5,3.5,2.3,5.1.5,1.2,1,2.2,1.3,3.2.8,2.6,1.1,5.1.7,7.7Z"/>
</svg>