<svg width="164" height="53" viewBox="0 0 164 53" fill="none" xmlns="http://www.w3.org/2000/svg">
<path d="M19.5359 13C21.0755 10.3333 24.9245 10.3333 26.4641 13L39.4545 35.5C40.9941 38.1667 39.0696 41.5 35.9904 41.5H10.0096C6.93042 41.5 5.00592 38.1667 6.54552 35.5L19.5359 13Z" fill="#092B5D"/>
<path d="M29.5359 6C31.0755 3.33334 34.9245 3.33333 36.4641 6L49.4545 28.5C50.9941 31.1667 49.0696 34.5 45.9904 34.5H20.0096C16.9304 34.5 15.0059 31.1667 16.5455 28.5L29.5359 6Z" fill="#64A1FD" fill-opacity="0.5"/>
<path d="M82.872 38H78.2L75.96 33.232H65.72L63.48 38H58.936L70.904 12.592L82.872 38ZM70.84 22.032H70.776L67.448 29.392H74.168L70.84 22.032ZM91.7628 33.168L88.2748 38H83.4108L89.3308 30L83.7308 22.352H88.6588L91.8588 26.8L95.0268 22.352H99.8588L94.2588 29.968L100.179 38H95.2508L91.7628 33.168ZM116.299 30.192C116.299 30.672 116.267 31.088 116.171 31.504H104.811C105.163 33.296 106.763 34.608 108.939 34.608C110.507 34.608 111.819 33.808 112.555 32.528L115.915 34.48C114.507 36.88 111.947 38.448 108.843 38.448C104.107 38.448 100.619 34.864 100.619 30.192C100.619 25.456 103.947 21.936 108.459 21.936C112.971 21.936 116.299 25.456 116.299 30.192ZM108.459 25.392C106.443 25.392 105.035 26.672 104.779 28.464H112.139C111.883 26.672 110.475 25.392 108.459 25.392ZM123.679 13.104V38H119.519V13.104H123.679ZM135.349 38.448C130.549 38.448 126.901 34.8 126.901 30.192C126.901 25.584 130.549 21.936 135.349 21.936C140.149 21.936 143.797 25.584 143.797 30.192C143.797 34.8 140.149 38.448 135.349 38.448ZM135.349 34.544C137.685 34.544 139.509 32.656 139.509 30.192C139.509 27.728 137.685 25.84 135.349 25.84C132.981 25.84 131.189 27.728 131.189 30.192C131.189 32.656 132.981 34.544 135.349 34.544ZM150.891 22.352V23.6C151.915 22.576 153.387 21.936 155.019 21.936C156.779 21.936 158.283 22.608 159.403 23.76C160.587 24.912 161.291 26.512 161.291 28.976V38H157.131V29.328C157.131 27.824 156.811 27.12 156.267 26.576C155.723 26 155.019 25.712 154.155 25.712C153.291 25.712 152.587 26 152.043 26.576C151.499 27.184 151.179 27.824 151.179 29.328V38H147.019V22.352H150.891Z" fill="#092B5D"/>
</svg>
