<?xml version="1.0" encoding="UTF-8"?>
<svg id="Layer_1" xmlns="http://www.w3.org/2000/svg" version="1.1" viewBox="0 0 74 24">
  <!-- Generator: Adobe Illustrator 29.1.0, SVG Export Plug-In . SVG Version: 2.1.0 Build 142)  -->
  <defs>
    <style>
      .st0 {
        fill: #b5b5b5;
      }
    </style>
  </defs>
  <path class="st0" d="M9.2,8.2v2.5h5.9c-.2,1.4-.6,2.4-1.3,3.1-.9.9-2.2,1.8-4.5,1.8-3.6,0-6.4-2.9-6.4-6.5s2.8-6.5,6.4-6.5,3.4.8,4.4,1.8l1.7-1.7c-1.5-1.4-3.4-2.5-6.2-2.5C4.3,0,.1,4,.1,9s4.2,9,9.1,9,4.7-.9,6.3-2.5c1.6-1.6,2.1-3.9,2.1-5.8s0-1.1-.1-1.5h-8.3Z"/>
  <path class="st0" d="M25,6.2c-3.2,0-5.8,2.4-5.8,5.8s2.6,5.8,5.8,5.8,5.8-2.5,5.8-5.8-2.6-5.8-5.8-5.8ZM25,15.5c-1.8,0-3.3-1.4-3.3-3.5s1.5-3.5,3.3-3.5,3.3,1.4,3.3,3.5-1.5,3.5-3.3,3.5Z"/>
  <path class="st0" d="M53.6,7.5h0c-.6-.7-1.7-1.3-3.1-1.3-2.9,0-5.4,2.5-5.4,5.8s2.5,5.8,5.4,5.8,2.5-.6,3.1-1.3h0v.8c0,2.2-1.2,3.4-3.1,3.4s-2.5-1.1-2.9-2.1l-2.2.9c.6,1.5,2.3,3.4,5.2,3.4s5.5-1.8,5.5-6.1V6.5h-2.4v1ZM50.7,15.5c-1.8,0-3.1-1.5-3.1-3.5s1.3-3.5,3.1-3.5,3.1,1.5,3.1,3.5c0,2-1.4,3.5-3.1,3.5Z"/>
  <path class="st0" d="M38,6.2c-3.2,0-5.8,2.4-5.8,5.8s2.6,5.8,5.8,5.8,5.8-2.5,5.8-5.8-2.6-5.8-5.8-5.8ZM38,15.5c-1.8,0-3.3-1.4-3.3-3.5s1.5-3.5,3.3-3.5,3.3,1.4,3.3,3.5-1.5,3.5-3.3,3.5Z"/>
  <path class="st0" d="M58,.2h2.5v17.6h-2.5V.2Z"/>
  <path class="st0" d="M68.3,15.5c-1.3,0-2.2-.6-2.8-1.8l7.8-3.2-.3-.7c-.5-1.3-2-3.7-5-3.7s-5.5,2.4-5.5,5.8,2.5,5.8,5.8,5.8,4.2-1.6,4.8-2.6l-2-1.3c-.7,1-1.6,1.6-2.9,1.6h0ZM68.1,8.4c1,0,1.9.5,2.2,1.3l-5.2,2.2c0-2.4,1.7-3.4,3.1-3.4Z"/>
</svg>