<?xml version="1.0" encoding="UTF-8"?>
<svg id="Livello_1" xmlns="http://www.w3.org/2000/svg" version="1.1" viewBox="0 0 1000 401.1">
  <!-- Generator: Adobe Illustrator 29.1.0, SVG Export Plug-In . SVG Version: 2.1.0 Build 142)  -->
  <defs>
    <style>
      .st0 {
        fill: #b5b5b5;
      }
    </style>
  </defs>
  <g>
    <polygon class="st0" points="0 373.2 194.4 373.2 194.4 401 0 401 0 373.2"/>
    <polygon class="st0" points="0 319.8 194.4 319.8 194.4 347.8 0 347.8 0 319.8"/>
    <polygon class="st0" points="55.5 266.5 138.9 266.5 138.9 294.5 55.5 294.5 55.5 266.5"/>
    <polygon class="st0" points="55.5 213.3 138.9 213.3 138.9 241.2 55.5 241.2 55.5 213.3"/>
    <polygon class="st0" points="55.5 160 138.9 160 138.9 187.9 55.5 187.9 55.5 160"/>
    <polygon class="st0" points="55.5 106.6 138.9 106.6 138.9 134.5 55.5 134.5 55.5 106.6"/>
    <rect class="st0" y="53.3" width="194.4" height="27.9"/>
    <rect class="st0" width="194.4" height="27.9"/>
  </g>
  <g>
    <path class="st0" d="M222.2,347.8h299c5.1-8.6,8.8-18,11.1-27.9H222.2v27.9Z"/>
    <path class="st0" d="M497.9,213.3h-220.2v27.9h243.5c-6.3-10.7-14.2-20.1-23.3-27.9Z"/>
    <path class="st0" d="M277.7,160v27.9h220.2c9.3-7.8,17.1-17.2,23.3-27.9h-243.5Z"/>
    <path class="st0" d="M521.2,53.3H222.2v27.9h310.1c-2.6-9.9-6.3-19.3-11.1-27.9Z"/>
    <path class="st0" d="M429.3,0h-207.1v27.9h278.5C482.1,10.7,456.8,0,429.3,0Z"/>
    <rect class="st0" x="277.7" y="106.6" width="83.3" height="27.9"/>
    <path class="st0" d="M444.4,134.5h87.2c2.5-8.9,3.8-18.3,3.8-27.9h-90.9v27.9h0Z"/>
    <polygon class="st0" points="277.7 266.5 361 266.5 361 294.5 277.7 294.5 277.7 266.5"/>
    <path class="st0" d="M444.4,266.5v27.9h90.9c0-9.6-1.3-19-3.8-27.9h-87.2Z"/>
    <path class="st0" d="M222.2,400.9l207.1.3c27.7,0,52.8-10.7,71.5-27.9H222.2v27.6Z"/>
  </g>
  <g>
    <polygon class="st0" points="555.6 373.2 694.4 373.2 694.4 401 555.6 401 555.6 373.2"/>
    <polygon class="st0" points="555.6 319.8 694.4 319.8 694.4 347.8 555.6 347.8 555.6 319.8"/>
    <polygon class="st0" points="611 266.5 694.4 266.5 694.4 294.5 611 294.5 611 266.5"/>
    <polygon class="st0" points="611 213.3 694.4 213.3 694.4 241.2 611 241.2 611 213.3"/>
    <polygon class="st0" points="733.1 53.3 555.6 53.3 555.6 81.2 742.7 81.2 733.1 53.3"/>
    <polygon class="st0" points="714.6 0 555.6 0 555.6 27.9 724.2 27.9 714.6 0"/>
    <polygon class="st0" points="861 373.2 1000 373.2 1000 401 861 401 861 373.2"/>
    <polygon class="st0" points="861 319.8 1000 319.8 1000 347.8 861 347.8 861 319.8"/>
    <polygon class="st0" points="861 266.5 944.4 266.5 944.4 294.5 861 294.5 861 266.5"/>
    <polygon class="st0" points="861 213.3 944.4 213.3 944.4 241.2 861 241.2 861 213.3"/>
    <polygon class="st0" points="861 187.9 944.4 187.9 944.4 160 861 160 861 160 785.6 160 777.7 182.5 769.9 160 694.4 160 694.4 160 611 160 611 187.9 694.4 187.9 694.4 162.2 703.2 187.9 852.2 187.9 861 162.2 861 187.9"/>
    <polygon class="st0" points="944.4 106.6 804 106.6 794.4 134.5 944.4 134.5 944.4 106.6"/>
    <polygon class="st0" points="840.9 0 831.3 27.9 1000 27.9 1000 0 840.9 0"/>
    <polygon class="st0" points="777.7 400.9 787.3 373.2 768.1 373.2 777.7 400.9"/>
    <polygon class="st0" points="759.3 347.8 796.2 347.8 806.1 319.8 749.5 319.8 759.3 347.8"/>
    <polygon class="st0" points="740.6 294.5 814.9 294.5 824.7 266.5 730.8 266.5 740.6 294.5"/>
    <polygon class="st0" points="722 241.2 833.6 241.2 843.1 213.3 712.4 213.3 722 241.2"/>
    <polygon class="st0" points="611 134.5 761.1 134.5 751.5 106.6 611 106.6 611 134.5"/>
    <polygon class="st0" points="812.9 81.2 1000 81.2 1000 53.3 822.4 53.3 812.9 81.2"/>
  </g>
</svg>